<svg width="110" height="44" viewBox="0 0 110 44" fill="none" xmlns="http://www.w3.org/2000/svg">
<path d="M8.1025 44C7.56917 44 7.3025 43.7333 7.3025 43.2V9.856H1.7025C1.16917 9.856 0.9025 9.58933 0.9025 9.056V2.144C0.9025 1.61066 1.16917 1.344 1.7025 1.344H23.5585C24.0918 1.344 24.3585 1.61066 24.3585 2.144V9.056C24.3585 9.58933 24.0918 9.856 23.5585 9.856H17.9585V43.2C17.9585 43.7333 17.6918 44 17.1585 44H8.1025ZM32.8275 44C32.2942 44 32.0275 43.7333 32.0275 43.2V9.6C32.0275 9.06667 32.2942 8.8 32.8275 8.8H41.3395C41.8728 8.8 42.1395 9.06667 42.1395 9.6V43.2C42.1395 43.7333 41.8728 44 41.3395 44H32.8275ZM32.6675 6.144C32.2408 6.144 32.0275 5.93066 32.0275 5.504V1.44C32.0275 1.01333 32.2408 0.799999 32.6675 0.799999H41.5635C41.9475 0.799999 42.1395 1.01333 42.1395 1.44V5.504C42.1395 5.93066 41.9475 6.144 41.5635 6.144H32.6675ZM50.39 44C49.8567 44 49.59 43.7333 49.59 43.2V9.6C49.59 9.06667 49.8567 8.8 50.39 8.8H64.95C65.4407 8.8 65.8673 8.98133 66.23 9.344L70.166 13.28H71.35L75.286 9.344C75.6487 8.98133 76.0753 8.8 76.566 8.8H83.51C84.0007 8.8 84.4273 8.98133 84.79 9.344L91.19 15.744C91.5527 16.0853 91.734 16.512 91.734 17.024V43.2C91.734 43.7333 91.4673 44 90.934 44H82.39C81.8567 44 81.59 43.7333 81.59 43.2V18.144C81.59 17.248 81.142 16.8 80.246 16.8H75.734V43.2C75.734 43.7333 75.4673 44 74.934 44H66.39C65.8567 44 65.59 43.7333 65.59 43.2V18.144C65.59 17.248 65.142 16.8 64.246 16.8H59.734V43.2C59.734 43.7333 59.4673 44 58.934 44H50.39ZM100.015 44C99.4817 44 99.215 43.7333 99.215 43.2V9.6C99.215 9.06667 99.4817 8.8 100.015 8.8H108.527C109.06 8.8 109.327 9.06667 109.327 9.6V43.2C109.327 43.7333 109.06 44 108.527 44H100.015ZM99.855 6.144C99.4283 6.144 99.215 5.93066 99.215 5.504V1.44C99.215 1.01333 99.4283 0.799999 99.855 0.799999H108.751C109.135 0.799999 109.327 1.01333 109.327 1.44V5.504C109.327 5.93066 109.135 6.144 108.751 6.144H99.855Z" fill="#423E59"/>
</svg>
